<svg width="128" height="20" viewBox="0 0 128 20" fill="none" xmlns="http://www.w3.org/2000/svg">
<path fill-rule="evenodd" clip-rule="evenodd" d="M10 20C12.9461 20 15.5946 18.726 17.4247 16.6989C19.8359 14.0281 22.6919 11 26.29 11H47.71C51.3081 11 54.1641 14.0281 56.5753 16.6989C58.4054 18.726 61.0539 20 64 20C66.9461 20 69.5946 18.726 71.4247 16.6989C73.8359 14.0281 76.6919 11 80.29 11H101.71C105.308 11 108.164 14.0281 110.575 16.6989C112.405 18.726 115.054 20 118 20C123.523 20 128 15.5228 128 10C128 4.47715 123.523 0 118 0C115.054 0 112.405 1.27399 110.575 3.30111C108.164 5.97186 105.308 9 101.71 9H80.29C76.6919 9 73.8359 5.97186 71.4247 3.30111C69.5946 1.27399 66.9461 0 64 0C61.0539 0 58.4054 1.27399 56.5753 3.30111C54.1641 5.97186 51.3081 9 47.71 9H26.29C22.6919 9 19.8359 5.97186 17.4247 3.30111C15.5946 1.27399 12.9461 0 10 0C4.47715 0 0 4.47715 0 10C0 15.5228 4.47715 20 10 20Z" fill="url(#paint0_linear_2149_1036)"/>
<defs>
<linearGradient id="paint0_linear_2149_1036" x1="19" y1="10" x2="128" y2="10" gradientUnits="userSpaceOnUse">
<stop offset="0.53" stop-color="#2871EE"/>
<stop offset="0.685" stop-color="#CCCCCC"/>
</linearGradient>
</defs>
</svg>
