<svg width="416" height="579" viewBox="0 0 416 579" fill="none" xmlns="http://www.w3.org/2000/svg">
<path d="M-76.2224 69.0261C-60.4319 46.484 2.90903 2.92317 33.9611 11.3195C52.1239 16.2306 52.451 39.6174 42.3929 67.8028M42.3929 67.8028C22.9274 122.35 -35.4347 194.87 -78.6887 186.226C-124.939 176.982 -46.6986 112.02 42.3929 67.8028ZM42.3929 67.8028C99.8256 39.2983 161.768 19.415 197.775 28.6371C229.483 36.758 230.569 69.7638 213.588 110.741M213.588 110.741C175.772 201.995 48.3536 332.782 -30.0154 316.3C-124.33 296.465 55.667 161.591 213.588 110.741ZM213.588 110.741C275.481 90.8115 333.982 83.7883 371.251 101.655C506.92 166.693 209.939 426.11 -44.7145 569.418" stroke="#6F97FF" stroke-width="20"/>
</svg>
